<svg width="52" height="23" viewBox="0 0 52 23" fill="none" xmlns="http://www.w3.org/2000/svg">
<path d="M1.26426 19V12.44H2.90426C3.57759 12.44 4.14426 12.5667 4.60426 12.82C5.06426 13.0733 5.41092 13.4433 5.64426 13.93C5.88426 14.41 6.00426 14.9967 6.00426 15.69C6.00426 16.3833 5.88426 16.98 5.64426 17.48C5.41092 17.9733 5.06759 18.35 4.61426 18.61C4.16092 18.87 3.60426 19 2.94426 19H1.26426ZM2.09426 18.32H2.84426C3.35759 18.32 3.78426 18.2167 4.12426 18.01C4.46426 17.7967 4.71759 17.4967 4.88426 17.11C5.05092 16.7233 5.13426 16.25 5.13426 15.69C5.13426 15.1433 5.05092 14.6767 4.88426 14.29C4.71759 13.9033 4.46426 13.6133 4.12426 13.42C3.78426 13.22 3.35759 13.12 2.84426 13.12H2.09426V18.32ZM9.3066 19.12C8.87327 19.12 8.4766 19.02 8.1166 18.82C7.76327 18.6133 7.48327 18.3233 7.2766 17.95C7.06993 17.57 6.9666 17.11 6.9666 16.57C6.9666 16.0433 7.07327 15.59 7.2866 15.21C7.49993 14.83 7.77327 14.5367 8.1066 14.33C8.43993 14.1233 8.79327 14.02 9.1666 14.02C9.57994 14.02 9.92994 14.1167 10.2166 14.31C10.5099 14.4967 10.7299 14.76 10.8766 15.1C11.0233 15.44 11.0966 15.84 11.0966 16.3C11.0966 16.3867 11.0933 16.47 11.0866 16.55C11.0866 16.63 11.0766 16.71 11.0566 16.79H7.5566V16.14H10.3566C10.3566 15.6733 10.2533 15.3167 10.0466 15.07C9.8466 14.8167 9.5566 14.69 9.1766 14.69C8.9566 14.69 8.73993 14.7533 8.5266 14.88C8.31327 15 8.1366 15.1967 7.9966 15.47C7.86327 15.7433 7.7966 16.1067 7.7966 16.56C7.7966 16.9733 7.8666 17.32 8.0066 17.6C8.15327 17.88 8.34993 18.0933 8.5966 18.24C8.84327 18.38 9.11327 18.45 9.4066 18.45C9.63993 18.45 9.8566 18.4167 10.0566 18.35C10.2633 18.2833 10.4499 18.1933 10.6166 18.08L10.9166 18.62C10.7033 18.7667 10.4633 18.8867 10.1966 18.98C9.9366 19.0733 9.63994 19.12 9.3066 19.12ZM13.5675 19.12C13.2142 19.12 12.8775 19.06 12.5575 18.94C12.2442 18.8133 11.9775 18.64 11.7575 18.42L12.1375 17.94C12.3509 18.1133 12.5709 18.2467 12.7975 18.34C13.0309 18.4333 13.2975 18.48 13.5975 18.48C13.9175 18.48 14.1575 18.4067 14.3175 18.26C14.4775 18.1067 14.5575 17.9267 14.5575 17.72C14.5575 17.5533 14.5009 17.4167 14.3875 17.31C14.2809 17.1967 14.1442 17.1033 13.9775 17.03C13.8175 16.95 13.6442 16.8767 13.4575 16.81C13.2175 16.7233 12.9875 16.6233 12.7675 16.51C12.5475 16.39 12.3675 16.2433 12.2275 16.07C12.0942 15.89 12.0275 15.6667 12.0275 15.4C12.0275 15.0067 12.1742 14.68 12.4675 14.42C12.7675 14.1533 13.1809 14.02 13.7075 14.02C14.0075 14.02 14.2875 14.0733 14.5475 14.18C14.8075 14.28 15.0309 14.41 15.2175 14.57L14.8375 15.04C14.6642 14.92 14.4875 14.8267 14.3075 14.76C14.1275 14.6933 13.9275 14.66 13.7075 14.66C13.4009 14.66 13.1742 14.73 13.0275 14.87C12.8875 15.01 12.8175 15.1733 12.8175 15.36C12.8175 15.5067 12.8609 15.63 12.9475 15.73C13.0342 15.8233 13.1542 15.9067 13.3075 15.98C13.4675 16.0533 13.6475 16.1233 13.8475 16.19C14.1009 16.2833 14.3409 16.39 14.5675 16.51C14.8009 16.6233 14.9875 16.7733 15.1275 16.96C15.2742 17.14 15.3475 17.3767 15.3475 17.67C15.3475 17.9367 15.2775 18.18 15.1375 18.4C15.0042 18.6133 14.8042 18.7867 14.5375 18.92C14.2775 19.0533 13.9542 19.12 13.5675 19.12ZM16.487 19V14.14H17.307V19H16.487ZM16.897 13.14C16.737 13.14 16.6037 13.09 16.497 12.99C16.397 12.89 16.347 12.76 16.347 12.6C16.347 12.44 16.397 12.31 16.497 12.21C16.6037 12.11 16.737 12.06 16.897 12.06C17.057 12.06 17.187 12.11 17.287 12.21C17.3937 12.31 17.447 12.44 17.447 12.6C17.447 12.76 17.3937 12.89 17.287 12.99C17.187 13.09 17.057 13.14 16.897 13.14ZM20.5879 21.24C20.1946 21.24 19.8446 21.1867 19.5379 21.08C19.2379 20.98 19.0013 20.8333 18.8279 20.64C18.6613 20.4467 18.5779 20.21 18.5779 19.93C18.5779 19.7233 18.6413 19.5233 18.7679 19.33C18.8946 19.1433 19.0679 18.9767 19.2879 18.83V18.79C19.1679 18.71 19.0646 18.6067 18.9779 18.48C18.8979 18.3467 18.8579 18.1867 18.8579 18C18.8579 17.7933 18.9146 17.6133 19.0279 17.46C19.1479 17.3067 19.2679 17.1867 19.3879 17.1V17.06C19.2346 16.9267 19.0913 16.7467 18.9579 16.52C18.8246 16.2933 18.7579 16.0367 18.7579 15.75C18.7579 15.3967 18.8413 15.09 19.0079 14.83C19.1813 14.57 19.4046 14.37 19.6779 14.23C19.9579 14.09 20.2613 14.02 20.5879 14.02C20.7213 14.02 20.8479 14.0333 20.9679 14.06C21.0879 14.08 21.1913 14.1067 21.2779 14.14H22.9679V14.77H21.9579V14.81C22.0779 14.9167 22.1746 15.05 22.2479 15.21C22.3279 15.37 22.3679 15.56 22.3679 15.78C22.3679 16.1267 22.2879 16.4267 22.1279 16.68C21.9679 16.9267 21.7546 17.12 21.4879 17.26C21.2213 17.3933 20.9213 17.46 20.5879 17.46C20.4679 17.46 20.3446 17.4467 20.2179 17.42C20.0913 17.3867 19.9713 17.3433 19.8579 17.29C19.7779 17.3633 19.7046 17.4433 19.6379 17.53C19.5779 17.6167 19.5479 17.73 19.5479 17.87C19.5479 18.0233 19.6079 18.15 19.7279 18.25C19.8546 18.35 20.0813 18.4 20.4079 18.4H21.3479C21.9146 18.4 22.3379 18.4933 22.6179 18.68C22.9046 18.86 23.0479 19.1533 23.0479 19.56C23.0479 19.86 22.9479 20.1367 22.7479 20.39C22.5479 20.6433 22.2613 20.8467 21.8879 21C21.5213 21.16 21.0879 21.24 20.5879 21.24ZM20.5879 16.91C20.7746 16.91 20.9446 16.8633 21.0979 16.77C21.2579 16.67 21.3846 16.5333 21.4779 16.36C21.5713 16.1867 21.6179 15.9833 21.6179 15.75C21.6179 15.39 21.5179 15.1133 21.3179 14.92C21.1179 14.72 20.8746 14.62 20.5879 14.62C20.3013 14.62 20.0579 14.72 19.8579 14.92C19.6579 15.1133 19.5579 15.39 19.5579 15.75C19.5579 15.9833 19.6046 16.1867 19.6979 16.36C19.7913 16.5333 19.9146 16.67 20.0679 16.77C20.2279 16.8633 20.4013 16.91 20.5879 16.91ZM20.7079 20.67C21.0146 20.67 21.2813 20.6233 21.5079 20.53C21.7413 20.4367 21.9213 20.3133 22.0479 20.16C22.1813 20.0067 22.2479 19.8467 22.2479 19.68C22.2479 19.4533 22.1613 19.2967 21.9879 19.21C21.8213 19.1233 21.5813 19.08 21.2679 19.08H20.4279C20.3346 19.08 20.2313 19.0733 20.1179 19.06C20.0113 19.0467 19.9046 19.0267 19.7979 19C19.6179 19.1267 19.4879 19.26 19.4079 19.4C19.3346 19.54 19.2979 19.68 19.2979 19.82C19.2979 20.08 19.4213 20.2867 19.6679 20.44C19.9213 20.5933 20.2679 20.67 20.7079 20.67ZM23.987 19V14.14H24.667L24.737 14.84H24.767C25.0003 14.6067 25.247 14.4133 25.507 14.26C25.767 14.1 26.0637 14.02 26.397 14.02C26.9103 14.02 27.2837 14.1833 27.517 14.51C27.757 14.83 27.877 15.3 27.877 15.92V19H27.057V16.03C27.057 15.57 26.9837 15.24 26.837 15.04C26.697 14.8333 26.4637 14.73 26.137 14.73C25.8903 14.73 25.667 14.7933 25.467 14.92C25.2737 15.0467 25.0537 15.2333 24.807 15.48V19H23.987Z" fill="#BFC0D1"/>
<g filter="url(#filter0_d_360_4)">
<rect x="43" y="2" width="7" height="7" fill="#BFC0D1"/>
<rect x="44" y="3" width="5" height="5" stroke="#31323E" stroke-width="2"/>
</g>
<line x1="31.7374" y1="14.5745" x2="46.3168" y2="5.57418" stroke="#BFC0D1"/>
<defs>
<filter id="filter0_d_360_4" x="41" y="0" width="11" height="11" filterUnits="userSpaceOnUse" color-interpolation-filters="sRGB">
<feFlood flood-opacity="0" result="BackgroundImageFix"/>
<feColorMatrix in="SourceAlpha" type="matrix" values="0 0 0 0 0 0 0 0 0 0 0 0 0 0 0 0 0 0 127 0" result="hardAlpha"/>
<feMorphology radius="2" operator="dilate" in="SourceAlpha" result="effect1_dropShadow_360_4"/>
<feOffset/>
<feComposite in2="hardAlpha" operator="out"/>
<feColorMatrix type="matrix" values="0 0 0 0 0.74902 0 0 0 0 0.752941 0 0 0 0 0.819608 0 0 0 1 0"/>
<feBlend mode="normal" in2="BackgroundImageFix" result="effect1_dropShadow_360_4"/>
<feBlend mode="normal" in="SourceGraphic" in2="effect1_dropShadow_360_4" result="shape"/>
</filter>
</defs>
</svg>
