<svg width="72" height="25" viewBox="0 0 72 25" fill="none" xmlns="http://www.w3.org/2000/svg">
<path d="M1.1959 21V14.44H3.1459C3.5859 14.44 3.9759 14.4933 4.3159 14.6C4.6559 14.7067 4.91923 14.88 5.1059 15.12C5.29923 15.3533 5.3959 15.66 5.3959 16.04C5.3959 16.38 5.31257 16.68 5.1459 16.94C4.9859 17.1933 4.74923 17.37 4.4359 17.47V17.51C4.84923 17.5833 5.1759 17.75 5.4159 18.01C5.6559 18.2633 5.7759 18.61 5.7759 19.05C5.7759 19.49 5.66923 19.8533 5.4559 20.14C5.24923 20.4267 4.95923 20.6433 4.5859 20.79C4.21257 20.93 3.77923 21 3.2859 21H1.1959ZM2.0259 17.23H2.9959C3.5559 17.23 3.95923 17.1333 4.2059 16.94C4.45257 16.7467 4.5759 16.4833 4.5759 16.15C4.5759 15.7633 4.4459 15.4933 4.1859 15.34C3.9259 15.18 3.54257 15.1 3.0359 15.1H2.0259V17.23ZM2.0259 20.34H3.1659C3.73257 20.34 4.17257 20.2367 4.4859 20.03C4.79923 19.8167 4.9559 19.49 4.9559 19.05C4.9559 18.6433 4.80257 18.3467 4.4959 18.16C4.18923 17.9667 3.7459 17.87 3.1659 17.87H2.0259V20.34ZM8.1148 21.12C7.84814 21.12 7.6048 21.0667 7.3848 20.96C7.17147 20.8467 7.00147 20.69 6.8748 20.49C6.74814 20.2833 6.6848 20.0333 6.6848 19.74C6.6848 19.1933 6.9248 18.78 7.4048 18.5C7.8848 18.22 8.6448 18.0233 9.6848 17.91C9.67814 17.71 9.6448 17.5167 9.5848 17.33C9.53147 17.1433 9.43147 16.9933 9.2848 16.88C9.13814 16.7667 8.9348 16.71 8.6748 16.71C8.3948 16.71 8.13147 16.7633 7.8848 16.87C7.63814 16.97 7.41814 17.0833 7.2248 17.21L6.9048 16.65C7.05147 16.55 7.2248 16.4533 7.4248 16.36C7.6248 16.26 7.84147 16.18 8.0748 16.12C8.30814 16.0533 8.5548 16.02 8.8148 16.02C9.20814 16.02 9.52814 16.1033 9.7748 16.27C10.0281 16.43 10.2115 16.66 10.3248 16.96C10.4448 17.26 10.5048 17.6133 10.5048 18.02V21H9.8248L9.7548 20.42H9.7248C9.49147 20.6133 9.24147 20.78 8.9748 20.92C8.70814 21.0533 8.42147 21.12 8.1148 21.12ZM8.3448 20.44C8.5848 20.44 8.80814 20.3867 9.0148 20.28C9.22814 20.1733 9.45147 20.0167 9.6848 19.81V18.5C9.13814 18.5667 8.7048 18.6533 8.3848 18.76C8.07147 18.86 7.8448 18.9867 7.7048 19.14C7.5648 19.2933 7.4948 19.4767 7.4948 19.69C7.4948 19.9567 7.57814 20.15 7.7448 20.27C7.91147 20.3833 8.11147 20.44 8.3448 20.44ZM13.9639 21.12C13.5305 21.12 13.1405 21.02 12.7939 20.82C12.4472 20.62 12.1739 20.33 11.9739 19.95C11.7739 19.57 11.6739 19.1133 11.6739 18.58C11.6739 18.0333 11.7805 17.57 11.9939 17.19C12.2139 16.81 12.5005 16.52 12.8539 16.32C13.2139 16.12 13.6005 16.02 14.0139 16.02C14.3339 16.02 14.6072 16.0733 14.8339 16.18C15.0672 16.2867 15.2672 16.4233 15.4339 16.59L15.0239 17.1C14.9039 16.98 14.7605 16.8867 14.5939 16.82C14.4339 16.7467 14.2505 16.71 14.0439 16.71C13.7572 16.71 13.4972 16.79 13.2639 16.95C13.0372 17.1033 12.8572 17.32 12.7239 17.6C12.5905 17.88 12.5239 18.2067 12.5239 18.58C12.5239 18.9467 12.5872 19.27 12.7139 19.55C12.8405 19.83 13.0172 20.05 13.2439 20.21C13.4705 20.3633 13.7339 20.44 14.0339 20.44C14.2605 20.44 14.4705 20.3967 14.6639 20.31C14.8572 20.2233 15.0239 20.1133 15.1639 19.98L15.5239 20.48C15.3172 20.6733 15.0839 20.83 14.8239 20.95C14.5639 21.0633 14.2772 21.12 13.9639 21.12ZM16.5944 21V13.88H17.4144V18.69H17.4344L19.4944 16.14H20.4144L18.7944 18.1L20.6344 21H19.7344L18.3144 18.66L17.4144 19.72V21H16.5944ZM25.5175 21.12C25.0842 21.12 24.6875 21.02 24.3275 20.82C23.9742 20.6133 23.6942 20.3233 23.4875 19.95C23.2809 19.57 23.1775 19.11 23.1775 18.57C23.1775 18.0433 23.2842 17.59 23.4975 17.21C23.7109 16.83 23.9842 16.5367 24.3175 16.33C24.6509 16.1233 25.0042 16.02 25.3775 16.02C25.7909 16.02 26.1409 16.1167 26.4275 16.31C26.7209 16.4967 26.9409 16.76 27.0875 17.1C27.2342 17.44 27.3075 17.84 27.3075 18.3C27.3075 18.3867 27.3042 18.47 27.2975 18.55C27.2975 18.63 27.2875 18.71 27.2675 18.79H23.7675V18.14H26.5675C26.5675 17.6733 26.4642 17.3167 26.2575 17.07C26.0575 16.8167 25.7675 16.69 25.3875 16.69C25.1675 16.69 24.9509 16.7533 24.7375 16.88C24.5242 17 24.3475 17.1967 24.2075 17.47C24.0742 17.7433 24.0075 18.1067 24.0075 18.56C24.0075 18.9733 24.0775 19.32 24.2175 19.6C24.3642 19.88 24.5609 20.0933 24.8075 20.24C25.0542 20.38 25.3242 20.45 25.6175 20.45C25.8509 20.45 26.0675 20.4167 26.2675 20.35C26.4742 20.2833 26.6609 20.1933 26.8275 20.08L27.1275 20.62C26.9142 20.7667 26.6742 20.8867 26.4075 20.98C26.1475 21.0733 25.8509 21.12 25.5175 21.12ZM28.5085 21V16.14H29.1885L29.2585 16.84H29.2885C29.5218 16.6067 29.7685 16.4133 30.0285 16.26C30.2885 16.1 30.5851 16.02 30.9185 16.02C31.4318 16.02 31.8051 16.1833 32.0385 16.51C32.2785 16.83 32.3985 17.3 32.3985 17.92V21H31.5785V18.03C31.5785 17.57 31.5051 17.24 31.3585 17.04C31.2185 16.8333 30.9851 16.73 30.6585 16.73C30.4118 16.73 30.1885 16.7933 29.9885 16.92C29.7951 17.0467 29.5751 17.2333 29.3285 17.48V21H28.5085ZM35.6372 21.12C35.0239 21.12 34.5339 20.9 34.1672 20.46C33.8072 20.0133 33.6272 19.3867 33.6272 18.58C33.6272 18.0533 33.7239 17.6 33.9172 17.22C34.1172 16.8333 34.3772 16.5367 34.6972 16.33C35.0172 16.1233 35.3639 16.02 35.7372 16.02C36.0239 16.02 36.2672 16.07 36.4672 16.17C36.6739 16.2633 36.8839 16.4 37.0972 16.58L37.0572 15.75V13.88H37.8872V21H37.2072L37.1372 20.43H37.1072C36.9206 20.6167 36.7006 20.78 36.4472 20.92C36.1939 21.0533 35.9239 21.12 35.6372 21.12ZM35.8172 20.43C36.0439 20.43 36.2572 20.3733 36.4572 20.26C36.6572 20.1467 36.8572 19.98 37.0572 19.76V17.22C36.8572 17.0333 36.6606 16.9033 36.4672 16.83C36.2739 16.75 36.0772 16.71 35.8772 16.71C35.6172 16.71 35.3806 16.79 35.1672 16.95C34.9606 17.1033 34.7939 17.32 34.6672 17.6C34.5406 17.8733 34.4772 18.1967 34.4772 18.57C34.4772 19.15 34.5939 19.6067 34.8272 19.94C35.0606 20.2667 35.3906 20.43 35.8172 20.43Z" fill="#BFC0D1"/>
<g filter="url(#filter0_d_354_2)">
<rect x="63" y="2" width="7" height="7" fill="#BFC0D1"/>
<rect x="64" y="3" width="5" height="5" stroke="#31323E" stroke-width="2"/>
</g>
<line x1="42.7785" y1="17.2021" x2="66.3579" y2="5.55137" stroke="#BFC0D1"/>
<defs>
<filter id="filter0_d_354_2" x="61" y="0" width="11" height="11" filterUnits="userSpaceOnUse" color-interpolation-filters="sRGB">
<feFlood flood-opacity="0" result="BackgroundImageFix"/>
<feColorMatrix in="SourceAlpha" type="matrix" values="0 0 0 0 0 0 0 0 0 0 0 0 0 0 0 0 0 0 127 0" result="hardAlpha"/>
<feMorphology radius="2" operator="dilate" in="SourceAlpha" result="effect1_dropShadow_354_2"/>
<feOffset/>
<feComposite in2="hardAlpha" operator="out"/>
<feColorMatrix type="matrix" values="0 0 0 0 0.74902 0 0 0 0 0.752941 0 0 0 0 0.819608 0 0 0 1 0"/>
<feBlend mode="normal" in2="BackgroundImageFix" result="effect1_dropShadow_354_2"/>
<feBlend mode="normal" in="SourceGraphic" in2="effect1_dropShadow_354_2" result="shape"/>
</filter>
</defs>
</svg>
