<svg width="1280" height="75" viewBox="0 0 1280 75" fill="none" xmlns="http://www.w3.org/2000/svg">
<path d="M-9.88109 19.7623C-9.88109 19.7623 63.9985 29.9438 112.055 31.3934C160.592 32.8574 187.691 26.228 236.261 27.0268C331.797 28.5981 384.755 71.705 477.117 55.7857C528.08 47.0018 543.589 18.0248 595.926 13.9132C645.721 10.0012 671.11 29.6107 720.933 33.5477C772.065 37.588 801.876 28.4855 852.767 33.6893C898.836 38.4 920.551 54.909 967.113 56.3123C1017.75 57.8381 1043.44 42.1829 1093.58 37.4481C1141.1 32.9613 1168.24 31.9164 1216.26 32.0799C1261.91 32.2354 1287.25 38.762 1332.86 37.7052C1381.61 36.576 1407.58 23.5376 1456.3 25.3378C1481.9 26.2839 1495.61 34.2826 1521.08 32.4075C1546.67 30.5238 1556.7 19.017 1582.02 15.9729C1628.67 10.3641 1653.5 31.3973 1700.92 32.6008C1748.96 33.8198 1774.91 19.205 1822.83 21.7317C1870.89 24.2658 1940.99 45.359 1940.99 45.359" stroke="#BFC0D1" stroke-opacity="0.35" stroke-width="4"/>
<path d="M-424.893 34.9785C-424.893 34.9785 -349.126 38.9233 -301.039 35.0749C-253.421 31.264 -228.862 19.1069 -181.192 15.669C-94.4147 9.4106 -46.5703 37.2006 40.5822 35.3409C132.862 33.3719 181.116 -4.16278 272.958 3.0225C365.635 10.2732 400.46 67.3291 493.451 71.6945C575.558 75.549 610.774 42.9194 692.5 36.0124C771.822 29.3086 825.775 50.0973 905.5 47C979.635 44.1199 1017.83 20.7907 1092.07 21.6601C1166.03 22.5264 1279.89 40.3059 1279.89 40.3059" stroke="#BFC0D1" stroke-opacity="0.35" stroke-width="4"/>
</svg>
