<svg width="71" height="30" viewBox="0 0 71 30" fill="none" xmlns="http://www.w3.org/2000/svg">
<path d="M30.2945 10V3.44H34.0745V4.14H31.1245V6.36H33.6245V7.06H31.1245V10H30.2945ZM34.9606 10V5.14H35.6406L35.7106 6.02H35.7406C35.9006 5.71333 36.1006 5.47 36.3406 5.29C36.5806 5.11 36.8406 5.02 37.1206 5.02C37.2273 5.02 37.3206 5.02667 37.4006 5.04C37.4806 5.05333 37.5606 5.08 37.6406 5.12L37.4606 5.82C37.3873 5.8 37.3173 5.78667 37.2506 5.78C37.1906 5.76667 37.1106 5.76 37.0106 5.76C36.804 5.76 36.5873 5.84333 36.3606 6.01C36.1406 6.17667 35.9473 6.46667 35.7806 6.88V10H34.9606ZM40.2198 10.12C39.8264 10.12 39.4564 10.02 39.1098 9.82C38.7698 9.62 38.4931 9.33 38.2798 8.95C38.0731 8.57 37.9698 8.11333 37.9698 7.58C37.9698 7.03333 38.0731 6.57 38.2798 6.19C38.4931 5.81 38.7698 5.52 39.1098 5.32C39.4564 5.12 39.8264 5.02 40.2198 5.02C40.6198 5.02 40.9898 5.12 41.3298 5.32C41.6698 5.52 41.9431 5.81 42.1498 6.19C42.3631 6.57 42.4698 7.03333 42.4698 7.58C42.4698 8.11333 42.3631 8.57 42.1498 8.95C41.9431 9.33 41.6698 9.62 41.3298 9.82C40.9898 10.02 40.6198 10.12 40.2198 10.12ZM40.2198 9.44C40.4998 9.44 40.7464 9.36333 40.9598 9.21C41.1731 9.05 41.3364 8.83 41.4498 8.55C41.5631 8.27 41.6198 7.94667 41.6198 7.58C41.6198 7.20667 41.5631 6.88 41.4498 6.6C41.3364 6.31333 41.1731 6.09333 40.9598 5.94C40.7464 5.78 40.4998 5.7 40.2198 5.7C39.9398 5.7 39.6931 5.78 39.4798 5.94C39.2731 6.09333 39.1098 6.31333 38.9898 6.6C38.8764 6.88 38.8198 7.20667 38.8198 7.58C38.8198 7.94667 38.8764 8.27 38.9898 8.55C39.1098 8.83 39.2731 9.05 39.4798 9.21C39.6931 9.36333 39.9398 9.44 40.2198 9.44ZM43.7497 10V5.14H44.4297L44.4997 5.84H44.5297C44.763 5.60667 45.0097 5.41333 45.2697 5.26C45.5297 5.1 45.8264 5.02 46.1597 5.02C46.673 5.02 47.0464 5.18333 47.2797 5.51C47.5197 5.83 47.6397 6.3 47.6397 6.92V10H46.8197V7.03C46.8197 6.57 46.7464 6.24 46.5997 6.04C46.4597 5.83333 46.2264 5.73 45.8997 5.73C45.653 5.73 45.4297 5.79333 45.2297 5.92C45.0364 6.04667 44.8164 6.23333 44.5697 6.48V10H43.7497ZM50.7484 10.09C50.2351 10.09 49.8751 9.94 49.6684 9.64C49.4618 9.34 49.3584 8.95 49.3584 8.47V5.81H48.6384V5.19L49.3984 5.14L49.4984 3.58H50.1884V5.14H51.5084V5.81H50.1884V8.48C50.1884 8.77333 50.2418 9.00333 50.3484 9.17C50.4618 9.33667 50.6584 9.42 50.9384 9.42C51.0251 9.42 51.1151 9.41333 51.2084 9.4C51.3018 9.38 51.3951 9.34667 51.4884 9.3L51.6684 9.88C51.5418 9.94 51.3984 9.99 51.2384 10.03C51.0784 10.07 50.9151 10.09 50.7484 10.09ZM51.9334 7.81V7.18H54.2334V7.81H51.9334ZM57.4189 10.12C56.9856 10.12 56.5889 10.02 56.2289 9.82C55.8756 9.61333 55.5956 9.32333 55.3889 8.95C55.1822 8.57 55.0789 8.11 55.0789 7.57C55.0789 7.04333 55.1856 6.59 55.3989 6.21C55.6122 5.83 55.8856 5.53667 56.2189 5.33C56.5522 5.12333 56.9056 5.02 57.2789 5.02C57.6922 5.02 58.0422 5.11667 58.3289 5.31C58.6222 5.49667 58.8422 5.76 58.9889 6.1C59.1356 6.44 59.2089 6.84 59.2089 7.3C59.2089 7.38667 59.2056 7.47 59.1989 7.55C59.1989 7.63 59.1889 7.71 59.1689 7.79H55.6689V7.14H58.4689C58.4689 6.67333 58.3656 6.31667 58.1589 6.07C57.9589 5.81667 57.6689 5.69 57.2889 5.69C57.0689 5.69 56.8522 5.75333 56.6389 5.88C56.4256 6 56.2489 6.19667 56.1089 6.47C55.9756 6.74333 55.9089 7.10667 55.9089 7.56C55.9089 7.97333 55.9789 8.32 56.1189 8.6C56.2656 8.88 56.4622 9.09333 56.7089 9.24C56.9556 9.38 57.2256 9.45 57.5189 9.45C57.7522 9.45 57.9689 9.41667 58.1689 9.35C58.3756 9.28333 58.5622 9.19333 58.7289 9.08L59.0289 9.62C58.8156 9.76667 58.5756 9.88667 58.3089 9.98C58.0489 10.0733 57.7522 10.12 57.4189 10.12ZM60.4098 10V5.14H61.0898L61.1598 5.84H61.1898C61.4232 5.60667 61.6698 5.41333 61.9298 5.26C62.1898 5.1 62.4865 5.02 62.8198 5.02C63.3332 5.02 63.7065 5.18333 63.9398 5.51C64.1798 5.83 64.2998 6.3 64.2998 6.92V10H63.4798V7.03C63.4798 6.57 63.4065 6.24 63.2598 6.04C63.1198 5.83333 62.8865 5.73 62.5598 5.73C62.3132 5.73 62.0898 5.79333 61.8898 5.92C61.6965 6.04667 61.4765 6.23333 61.2298 6.48V10H60.4098ZM67.5386 10.12C66.9253 10.12 66.4353 9.9 66.0686 9.46C65.7086 9.01333 65.5286 8.38667 65.5286 7.58C65.5286 7.05333 65.6253 6.6 65.8186 6.22C66.0186 5.83333 66.2786 5.53667 66.5986 5.33C66.9186 5.12333 67.2653 5.02 67.6386 5.02C67.9253 5.02 68.1686 5.07 68.3686 5.17C68.5753 5.26333 68.7853 5.4 68.9986 5.58L68.9586 4.75V2.88H69.7886V10H69.1086L69.0386 9.43H69.0086C68.8219 9.61667 68.6019 9.78 68.3486 9.92C68.0953 10.0533 67.8253 10.12 67.5386 10.12ZM67.7186 9.43C67.9453 9.43 68.1586 9.37333 68.3586 9.26C68.5586 9.14667 68.7586 8.98 68.9586 8.76V6.22C68.7586 6.03333 68.5619 5.90333 68.3686 5.83C68.1753 5.75 67.9786 5.71 67.7786 5.71C67.5186 5.71 67.2819 5.79 67.0686 5.95C66.8619 6.10333 66.6953 6.32 66.5686 6.6C66.4419 6.87333 66.3786 7.19667 66.3786 7.57C66.3786 8.15 66.4953 8.60667 66.7286 8.94C66.9619 9.26667 67.2919 9.43 67.7186 9.43Z" fill="#BFC0D1"/>
<g filter="url(#filter0_d_354_3)">
<rect x="2" y="21" width="7" height="7" fill="#BFC0D1"/>
<rect x="3" y="22" width="5" height="5" stroke="#31323E" stroke-width="2"/>
</g>
<line x1="5.67529" y1="24.6999" x2="25.6753" y2="7.61978" stroke="#BFC0D1"/>
<defs>
<filter id="filter0_d_354_3" x="0" y="19" width="11" height="11" filterUnits="userSpaceOnUse" color-interpolation-filters="sRGB">
<feFlood flood-opacity="0" result="BackgroundImageFix"/>
<feColorMatrix in="SourceAlpha" type="matrix" values="0 0 0 0 0 0 0 0 0 0 0 0 0 0 0 0 0 0 127 0" result="hardAlpha"/>
<feMorphology radius="2" operator="dilate" in="SourceAlpha" result="effect1_dropShadow_354_3"/>
<feOffset/>
<feComposite in2="hardAlpha" operator="out"/>
<feColorMatrix type="matrix" values="0 0 0 0 0.74902 0 0 0 0 0.752941 0 0 0 0 0.819608 0 0 0 1 0"/>
<feBlend mode="normal" in2="BackgroundImageFix" result="effect1_dropShadow_354_3"/>
<feBlend mode="normal" in="SourceGraphic" in2="effect1_dropShadow_354_3" result="shape"/>
</filter>
</defs>
</svg>
